<mxfile host="app.diagrams.net" modified="2024-06-09T08:28:48.552Z" agent="Mozilla/5.0 (Windows NT 10.0; Win64; x64) AppleWebKit/537.36 (KHTML, like Gecko) Chrome/125.0.0.0 Safari/537.36" etag="kfrYLL1MwTcNEmcbDVNc" version="24.5.2" type="github" pages="2">
  <diagram name="Risk Assessment Process" id="15MNASfSljBvQMLX-rD_">
    <mxGraphModel dx="1071" dy="576" grid="1" gridSize="10" guides="1" tooltips="1" connect="1" arrows="1" fold="1" page="1" pageScale="1" pageWidth="827" pageHeight="1169" math="0" shadow="0">
      <root>
        <mxCell id="0" />
        <mxCell id="1" parent="0" />
        <mxCell id="Z48tQkrX5CJKN6qc_FY0-9" value="" style="edgeStyle=orthogonalEdgeStyle;rounded=0;orthogonalLoop=1;jettySize=auto;html=1;" edge="1" parent="1" source="Z48tQkrX5CJKN6qc_FY0-1" target="Z48tQkrX5CJKN6qc_FY0-2">
          <mxGeometry relative="1" as="geometry" />
        </mxCell>
        <UserObject label="Indentify" link="data:page/id,v3buDUtBPuDCYTwkxDMz" id="Z48tQkrX5CJKN6qc_FY0-1">
          <mxCell style="ellipse;whiteSpace=wrap;html=1;aspect=fixed;fillColor=#f5f5f5;fontColor=#333333;strokeColor=#666666;" vertex="1" parent="1">
            <mxGeometry x="9" y="240" width="100" height="100" as="geometry" />
          </mxCell>
        </UserObject>
        <mxCell id="Z48tQkrX5CJKN6qc_FY0-10" value="" style="edgeStyle=orthogonalEdgeStyle;rounded=0;orthogonalLoop=1;jettySize=auto;html=1;" edge="1" parent="1" source="Z48tQkrX5CJKN6qc_FY0-2" target="Z48tQkrX5CJKN6qc_FY0-3">
          <mxGeometry relative="1" as="geometry" />
        </mxCell>
        <mxCell id="Z48tQkrX5CJKN6qc_FY0-2" value="Inherent Assessment" style="ellipse;whiteSpace=wrap;html=1;aspect=fixed;fillColor=#f8cecc;strokeColor=#b85450;" vertex="1" parent="1">
          <mxGeometry x="149" y="240" width="100" height="100" as="geometry" />
        </mxCell>
        <mxCell id="Z48tQkrX5CJKN6qc_FY0-11" value="" style="edgeStyle=orthogonalEdgeStyle;rounded=0;orthogonalLoop=1;jettySize=auto;html=1;" edge="1" parent="1" source="Z48tQkrX5CJKN6qc_FY0-3" target="Z48tQkrX5CJKN6qc_FY0-4">
          <mxGeometry relative="1" as="geometry" />
        </mxCell>
        <mxCell id="Z48tQkrX5CJKN6qc_FY0-3" value="Control Implementation" style="ellipse;whiteSpace=wrap;html=1;aspect=fixed;fillColor=#d5e8d4;strokeColor=#82b366;" vertex="1" parent="1">
          <mxGeometry x="289" y="240" width="100" height="100" as="geometry" />
        </mxCell>
        <mxCell id="Z48tQkrX5CJKN6qc_FY0-12" value="" style="edgeStyle=orthogonalEdgeStyle;rounded=0;orthogonalLoop=1;jettySize=auto;html=1;" edge="1" parent="1" source="Z48tQkrX5CJKN6qc_FY0-4" target="Z48tQkrX5CJKN6qc_FY0-5">
          <mxGeometry relative="1" as="geometry" />
        </mxCell>
        <mxCell id="Z48tQkrX5CJKN6qc_FY0-4" value="Residual Risk&lt;br&gt;Assesment" style="ellipse;whiteSpace=wrap;html=1;aspect=fixed;fillColor=#ffe6cc;strokeColor=#d79b00;" vertex="1" parent="1">
          <mxGeometry x="429" y="240" width="100" height="100" as="geometry" />
        </mxCell>
        <mxCell id="Z48tQkrX5CJKN6qc_FY0-13" value="" style="edgeStyle=orthogonalEdgeStyle;rounded=0;orthogonalLoop=1;jettySize=auto;html=1;" edge="1" parent="1" source="Z48tQkrX5CJKN6qc_FY0-5" target="Z48tQkrX5CJKN6qc_FY0-6">
          <mxGeometry relative="1" as="geometry" />
        </mxCell>
        <mxCell id="Z48tQkrX5CJKN6qc_FY0-5" value="Mitigation Plan&lt;br&gt;OR&lt;br&gt;Control Apply" style="ellipse;whiteSpace=wrap;html=1;aspect=fixed;fillColor=#dae8fc;strokeColor=#6c8ebf;" vertex="1" parent="1">
          <mxGeometry x="579" y="240" width="100" height="100" as="geometry" />
        </mxCell>
        <mxCell id="Z48tQkrX5CJKN6qc_FY0-6" value="Monitor" style="ellipse;whiteSpace=wrap;html=1;aspect=fixed;fillColor=#e1d5e7;strokeColor=#9673a6;" vertex="1" parent="1">
          <mxGeometry x="719" y="240" width="100" height="100" as="geometry" />
        </mxCell>
        <mxCell id="75Bqbwj7MVuNlZierDvX-2" value="&lt;font style=&quot;font-size: 22px;&quot;&gt;&lt;b&gt;Process of Risk Assessment&lt;/b&gt;&lt;/font&gt;" style="text;html=1;align=center;verticalAlign=middle;resizable=0;points=[];autosize=1;strokeColor=none;fillColor=none;" vertex="1" parent="1">
          <mxGeometry x="9" y="90" width="320" height="40" as="geometry" />
        </mxCell>
      </root>
    </mxGraphModel>
  </diagram>
  <diagram id="v3buDUtBPuDCYTwkxDMz" name="Risk Identification Stage">
    <mxGraphModel dx="910" dy="490" grid="1" gridSize="10" guides="1" tooltips="1" connect="1" arrows="1" fold="1" page="1" pageScale="1" pageWidth="827" pageHeight="1169" math="0" shadow="0">
      <root>
        <mxCell id="0" />
        <mxCell id="1" parent="0" />
        <mxCell id="uFeJdkBYWcN1V2fYIJUP-1" value="Text" style="text;html=1;align=center;verticalAlign=middle;resizable=0;points=[];autosize=1;strokeColor=none;fillColor=none;" vertex="1" parent="1">
          <mxGeometry x="25" y="40" width="50" height="30" as="geometry" />
        </mxCell>
      </root>
    </mxGraphModel>
  </diagram>
</mxfile>
